<svg width="194" height="45" xmlns="http://www.w3.org/2000/svg" xmlns:xlink="http://www.w3.org/1999/xlink"><defs><path id="a" d="M0 44.382h193.831V0H0z"/></defs><g fill="none" fill-rule="evenodd"><path d="M91.633 28.375c2.527 3.203 4.805 4.805 7.619 4.805 4.167 0 6.647-3.732 6.647-10.674 0-6.942-2.457-10.666-6.647-10.666-2.814 0-5.092 1.555-7.62 4.75v11.785zM88.625 9.803h2.23l.778 3.296h.249c2.37-2.518 4.897-3.786 7.61-3.786 5.505 0 9.392 4.805 9.392 13.169 0 8.366-3.887 13.147-9.407 13.147-2.713 0-5.24-1.213-7.611-3.732h-.25v12.485H88.61l.016-34.58zm26.035 0h2.954v4.408h.296c1.74-3.343 3.972-4.844 7.276-4.844h.14v2.908h-.381c-3.545 0-5.87 2.037-7.331 6.841V35.17h-2.954V9.803z" fill="#006CB7"/><mask id="b" fill="#fff"><use xlink:href="#a"/></mask><path fill="#006CB7" mask="url(#b)" d="M129.795 35.17h2.962V9.803h-2.962zm18.223-1.943c3.109 0 5.24-1.99 5.24-4.665 0-3.056-2.379-3.732-6.553-5.287-5.139-1.888-7.775-3.342-7.775-7.221 0-3.88 3.156-6.748 8.194-6.748 3.304 0 6.219 1.602 8.443 4.665l-2.138 1.553c-1.935-2.572-4.019-3.785-6.834-3.785-2.813 0-4.563 1.702-4.563 4.175 0 2.713 2.472 3.342 6.694 4.944 5.045 1.896 7.618 3.444 7.618 7.471 0 4.22-3.397 7.276-8.637 7.276-3.972 0-6.997-1.601-9.554-4.998l2.231-1.796c2.154 2.915 4.672 4.416 7.634 4.416m13.73-23.424h2.768v3.887h.194c2.665-2.908 5.44-4.36 8.145-4.36 2.863 0 4.9 1.452 6.066 4.36h.341c2.76-2.908 5.441-4.36 8.148-4.36 4.264 0 6.398 2.714 6.398 8.146V35.17h-2.862V18.595c0-4.462-.776-6.6-4.36-6.6-2.333 0-4.853 1.555-7.324 4.711V35.17h-2.9V18.595c0-4.462-.776-6.6-4.36-6.6-2.333 0-4.806 1.555-7.323 4.711V35.17h-2.931V9.803zM10.378 31.811c3.887 0 6.165-3.156 6.165-9.119 0-6.219-2.239-9.46-6.312-9.46-1.983 0-3.732 1.017-5.38 3.054v12.33c1.648 2.091 3.444 3.195 5.527 3.195zM4.851 0v12.517a7.463 7.463 0 0 1 6.22-3.149c6.117 0 10.191 4.843 10.191 12.944 0 8.442-3.833 13.294-10.107 13.294a8.06 8.06 0 0 1-6.794-3.35l-.723 2.914H0c.241-2.526.287-4.897.287-7.129V0h4.564zm21.752 35.17h4.54V0h-4.54zM42.952 9.748v17.103c0 3.343 1.065 4.897 3.73 4.897 1.992 0 4.122-1.119 6.307-3.35V9.74h4.586v25.422H53.33v-3.437c-2.814 2.52-5.286 3.833-8.147 3.833-4.322 0-6.841-2.666-6.841-7.47V9.747h4.61zm30.171 3.25c-3.343 0-5.442 2.378-5.628 6.748H78.51c-.132-4.323-2.215-6.748-5.387-6.748zM67.416 23.26v.49c0 5.138 2.333 7.998 6.352 7.998 2.674 0 4.711-1.305 6.165-3.98l3.397 2.092a10.603 10.603 0 0 1-9.803 5.768c-6.934 0-10.767-4.508-10.767-12.897 0-8.684 3.887-13.44 10.48-13.44 6.063 0 9.943 4.608 9.943 12.663 0 .435-.047.87-.047 1.306h-15.72zm122.52-20.236h.738c.483 0 .778-.093.778-.591 0-.497-.389-.56-.778-.56h-.738v1.15zm-.622-1.64h1.462c.87 0 1.306.357 1.306 1.073a.972.972 0 0 1-.98 1.057l1.081 1.687h-.661l-1.065-1.687h-.521V5.2h-.622V1.384zm1.252 4.664a2.65 2.65 0 0 0 2.627-2.767 2.635 2.635 0 1 0-5.271-.004v.004a2.652 2.652 0 0 0 2.652 2.767h-.008zm0-6.017a3.258 3.258 0 1 1-3.25 3.265V3.28a3.25 3.25 0 0 1 3.25-3.25z"/></g></svg>